PathFileType	4	(X/Y/Z)	s07c0001.trc
DataRate	CameraRate	NumFrames	NumMarkers	Units	OrigDataRate	OrigDataStartFrame	OrigNumFrames
200	200	6	49	mm	200	500	2000
Frame#	Time	racr			lacr			c7			jug			rlel			rdr			llel			ldr			s2			lic			ric			lasi			rasi			rpsi			lpsi			rgt			lgt			rth1			rth2			rth3			rth4			rlfc			rmfc			rsh1			rsh2			rsh3			rsh4			rlmal			rmmal			rcal			rtoe			rmt5			rmt1			lth1			lth2			lth4			lth3			llfc			lmfc			lsh1			lsh2			lsh3			lsh4			llmal			lmmal			lcal			ltoe			lmt1			lmt5			
		X1	Y1	Z1	X2	Y2	Z2	X3	Y3	Z3	X4	Y4	Z4	X5	Y5	Z5	X6	Y6	Z6	X7	Y7	Z7	X8	Y8	Z8	X9	Y9	Z9	X10	Y10	Z10	X11	Y11	Z11	X12	Y12	Z12	X13	Y13	Z13	X14	Y14	Z14	X15	Y15	Z15	X16	Y16	Z16	X17	Y17	Z17	X18	Y18	Z18	X19	Y19	Z19	X20	Y20	Z20	X21	Y21	Z21	X22	Y22	Z22	X23	Y23	Z23	X24	Y24	Z24	X25	Y25	Z25	X26	Y26	Z26	X27	Y27	Z27	X28	Y28	Z28	X29	Y29	Z29	X30	Y30	Z30	X31	Y31	Z31	X32	Y32	Z32	X33	Y33	Z33	X34	Y34	Z34	X35	Y35	Z35	X36	Y36	Z36	X37	Y37	Z37	X38	Y38	Z38	X39	Y39	Z39	X40	Y40	Z40	X41	Y41	Z41	X42	Y42	Z42	X43	Y43	Z43	X44	Y44	Z44	X45	Y45	Z45	X46	Y46	Z46	X47	Y47	Z47	X48	Y48	Z48	X49	Y49	Z49	
500	2.5000	178.504822	1568.780029	566.006226	208.029297	1570.051758	196.163712	146.877930	1608.116577	377.188354	269.056854	1517.415894	388.091827	244.155533	1223.250854	696.741333	393.850403	984.739258	808.947510	283.696320	1216.509399	97.346603	438.789185	978.837769	-5.352139	113.739273	1061.067993	368.387909	259.358429	1143.947876	232.886719	245.408554	1132.118164	536.991394	324.033295	1076.132202	266.322540	293.556091	1073.253296	529.224365	123.396461	1095.393921	424.940765	141.811172	1102.909668	313.315796	209.700150	975.764893	565.080261	242.607407	973.958313	215.095886	218.617035	847.033691	566.953613	241.771027	762.159119	559.091736	221.619736	679.293213	549.683228	278.071564	764.213013	551.479187	220.402908	537.949585	514.813477	229.631378	527.433350	419.026245	180.871674	400.115509	530.946594	198.657425	314.184143	510.730469	170.215042	232.405243	504.658203	221.665741	317.962952	478.399231	158.815857	91.683495	488.845123	199.481750	105.729370	410.720306	113.861061	41.247662	447.099182	395.386169	86.103165	505.358978	311.003296	36.118565	557.053528	328.116333	43.959602	449.564850	252.493622	856.686096	200.625641	275.558075	771.922974	207.592209	310.138519	772.796021	222.036285	252.465668	686.388611	215.107376	247.617462	531.439514	242.586716	241.797653	515.202393	330.473083	212.879776	396.607971	216.997192	229.407425	314.339905	238.085510	202.412033	227.271973	233.323959	239.404190	317.425476	278.110443	190.741028	91.244995	243.728516	225.138229	111.699760	324.981262	141.568924	37.697876	280.171753	423.179230	92.820572	249.253937	359.083221	47.627068	297.278473	345.355469	53.049717	192.081879	
501	2.5050	178.450470	1568.777832	565.988159	207.993073	1570.040771	196.132294	146.847382	1608.081055	377.085266	269.024139	1517.409302	388.076263	244.119690	1223.245850	696.698242	393.825989	984.741760	808.903198	283.644531	1216.499634	97.355392	438.741364	978.839233	-5.375361	113.734741	1061.044556	368.391510	259.341431	1143.956421	232.884598	245.369064	1132.120117	536.988647	324.015289	1076.123779	266.317657	293.534210	1073.257812	529.223022	123.380669	1095.369629	424.910858	141.793549	1102.906616	313.311371	209.685974	975.759583	565.080627	242.581467	973.955811	215.099899	218.597931	847.037964	566.946777	241.759705	762.157959	559.086609	221.618179	679.282654	549.682861	278.057434	764.212280	551.452576	220.380615	537.932007	514.798401	229.605957	527.411560	419.014008	180.865341	400.087921	530.948059	199.204849	314.318024	510.988403	170.205597	232.416260	504.657166	221.649231	318.274689	478.636688	158.825790	91.699852	488.859375	201.004944	105.839455	411.439056	113.882256	41.241028	447.098785	395.387329	86.122406	505.359283	311.016937	36.126160	557.043579	328.133545	43.961159	449.553070	252.451218	856.693970	200.623535	275.531555	771.902527	207.582718	310.099915	772.807129	222.033859	252.417816	686.388611	215.096588	247.614792	531.444458	242.591599	241.781403	515.224792	330.459930	212.857849	396.613220	216.995010	229.397659	314.259064	237.979614	202.413300	227.280991	233.337128	239.400452	317.423096	278.105560	190.741928	91.253929	243.720749	225.140305	111.702805	324.988800	141.569412	37.684872	280.168732	423.173737	92.803711	249.242645	359.066284	47.595989	297.287292	345.370911	53.046337	192.093002	
502	2.5100	178.404678	1568.773438	565.977661	207.944275	1570.023560	196.112000	146.782303	1608.087891	377.088348	268.966949	1517.429688	388.078857	244.084900	1223.233154	696.677490	393.793304	984.736816	808.888123	283.707062	1216.439087	97.743385	438.703125	978.816711	-5.384890	113.707916	1061.034668	368.383484	259.314636	1143.940063	232.872116	245.351135	1132.117188	536.977356	323.969421	1076.110107	266.304138	293.488464	1073.249268	529.201416	123.335808	1095.363281	424.929077	141.746613	1102.911743	313.315216	209.656433	975.767517	565.077332	242.537231	973.950073	215.097794	218.581284	847.036865	566.940674	241.737122	762.166260	559.071899	221.599564	679.272522	549.675293	278.023163	764.207520	551.464294	220.348206	537.952637	514.812683	229.578857	527.430542	418.997894	180.848862	400.074554	530.953125	198.624191	314.161713	510.736755	170.181747	232.398361	504.647552	221.632950	317.964691	478.415802	158.814880	91.684319	488.856415	200.997620	105.829559	411.431580	113.890717	41.227379	447.095856	395.370941	86.114624	505.349426	311.012512	36.117363	557.044006	328.134857	43.964661	449.570221	252.442276	856.669983	200.635468	275.520599	771.887085	207.614365	310.069855	772.795349	222.029434	252.391510	686.383362	215.098190	247.576141	531.449829	242.589890	241.754303	515.214844	330.454285	212.842422	396.601257	217.008591	229.395218	314.275452	237.974136	202.399170	227.274261	233.324982	239.358017	317.399475	278.091095	190.741379	91.245026	243.727142	225.137939	111.700272	324.981232	141.566788	37.686703	280.184662	423.178802	92.805679	249.248505	359.043182	47.620644	297.268005	345.381775	53.035038	192.096878	
503	2.5150	178.365692	1568.771362	565.961060	207.884567	1570.018188	196.110764	146.729797	1608.082764	377.079163	268.924438	1517.416138	388.055328	244.045700	1223.246582	696.633911	393.778778	984.746033	808.845520	283.678253	1216.432007	97.745491	438.668274	978.818481	-5.398680	113.666069	1061.042236	368.378418	259.269958	1143.934814	232.868454	245.298721	1132.103271	536.969299	323.943237	1076.137573	266.270782	293.474823	1073.246704	529.192322	123.314407	1095.367798	424.928101	141.722229	1102.911133	313.291260	209.648560	975.751770	565.055176	242.503799	973.951294	215.085297	218.567459	847.031189	566.929016	241.712997	762.156860	559.081543	221.570953	679.281128	549.676453	278.002350	764.224915	551.469299	220.343277	537.941833	514.807373	229.537369	527.434143	418.987457	180.803467	400.114349	530.943054	199.183990	314.306976	510.987732	170.169037	232.413986	504.644775	221.611694	318.257446	478.618561	158.825806	91.693413	488.863098	201.007141	105.812065	411.451904	113.859161	41.252068	447.085327	395.386780	86.113602	505.354034	311.025635	36.129078	557.061401	328.114624	43.950821	449.561371	252.394836	856.672058	200.623260	275.472076	771.920349	207.580673	310.023499	772.802917	221.981171	252.358200	686.393860	215.109039	247.554764	531.460999	242.596268	241.762146	515.218811	330.472382	212.804428	396.607483	216.995773	229.377243	314.332794	238.109756	202.407135	227.273239	233.335785	239.369095	317.390869	278.102448	190.749146	91.249191	243.726974	225.142288	111.690437	324.990234	141.574997	37.684727	280.167938	423.198700	92.817413	249.264404	359.054932	47.621368	297.282837	345.360046	53.045959	192.082626	
504	2.5200	178.325623	1568.760864	565.953857	207.835815	1570.015991	196.086121	146.688736	1608.065430	377.044250	268.881500	1517.426636	388.047638	244.028336	1223.233398	696.604248	393.746521	984.728516	808.804626	283.642090	1216.415894	97.698761	438.624329	978.812805	-5.407285	113.636429	1061.028564	368.364624	259.221039	1143.927002	232.853760	245.275330	1132.095215	536.965088	323.897308	1076.123901	266.257294	293.441040	1073.244873	529.177490	123.265381	1095.355469	424.927734	141.717941	1102.908203	313.280945	209.628250	975.756104	565.055420	242.480225	973.945068	215.089066	218.539856	847.033203	566.926270	241.690674	762.164978	559.066650	221.551208	679.292236	549.672180	278.006165	764.210205	551.447327	220.325302	537.938721	514.791260	229.535309	527.434692	418.996124	180.803055	400.086823	530.944214	198.598785	314.170868	510.726837	170.159561	232.408905	504.646576	221.610214	317.979462	478.410034	158.811768	91.678444	488.849457	200.988419	105.840469	411.441833	113.882317	41.241367	447.098969	395.371552	86.121941	505.352875	311.003296	36.118561	557.053528	328.123383	43.955090	449.536835	252.338501	856.674011	200.615372	275.436554	771.891479	207.581421	309.996155	772.796204	222.000183	252.328293	686.386841	215.107956	247.540573	531.455811	242.619904	241.729736	515.216675	330.476410	212.738525	396.656067	216.951279	229.348892	314.328979	238.092331	202.394669	227.289551	233.353653	239.343521	317.380890	278.096771	190.727081	91.236000	243.730576	225.144669	111.685402	324.992523	141.587891	37.675289	280.177948	423.174622	92.815079	249.251831	359.102081	47.646545	297.298645	345.381714	53.010098	192.089432	
505	2.5250	178.270676	1568.761841	565.952087	207.799591	1570.000122	196.062881	146.631363	1608.074951	377.073151	268.832886	1517.423096	388.021179	243.988663	1223.213989	696.565674	393.743134	984.733643	808.772278	283.618011	1216.416382	97.690514	438.599396	978.797546	-5.398223	113.624573	1061.011841	368.374786	259.211914	1143.910278	232.860703	245.245361	1132.096924	536.946289	323.884521	1076.122314	266.256134	293.417603	1073.243530	529.174438	123.243423	1095.344727	424.911163	141.668930	1102.922119	313.275970	209.591339	975.751404	565.051575	242.450333	973.944458	215.075287	218.519913	847.030212	566.920227	241.676529	762.157898	559.063232	221.537094	679.286987	549.652771	277.981201	764.208984	551.443237	220.309082	537.944946	514.798950	229.522263	527.430664	419.004974	180.795914	400.065155	530.944519	199.133713	314.323700	510.990448	170.167236	232.386490	504.640228	221.598831	318.271088	478.612457	158.816299	91.672401	488.851349	199.470688	105.730103	410.717651	113.893349	41.229923	447.089325	395.359009	86.139130	505.350433	310.996735	36.115429	557.041748	328.135620	43.951077	449.561768	252.311020	856.667480	200.607361	275.421967	771.896729	207.635117	309.980652	772.778015	222.042252	252.299805	686.387024	215.109573	247.505157	531.446045	242.608704	241.725204	515.230835	330.478119	212.731873	396.660126	216.952530	229.334808	314.333344	238.093887	202.372147	227.286041	233.344574	239.343185	317.381744	278.109131	190.738556	91.217819	243.734940	225.139816	111.683502	324.997437	141.574265	37.681854	280.173431	423.174011	92.803024	249.238846	359.110779	47.665600	297.304779	345.371429	53.046692	192.091995	
